<?xml version="1.0" encoding="UTF-8" ?>
<!DOCTYPE svg PUBLIC "-//W3C//DTD SVG 1.1//EN" "http://www.w3.org/Graphics/SVG/1.1/DTD/svg11.dtd">
<svg width="60pt" height="60pt" viewBox="0 0 60 60" version="1.1" xmlns="http://www.w3.org/2000/svg">
<path fill="#ffffff" d=" M 0.00 0.00 L 60.00 0.00 L 60.00 10.03 L 59.88 10.98 C 58.74 9.79 57.75 7.96 55.82 8.22 C 40.54 8.07 25.24 8.24 9.96 8.11 C 7.32 8.13 4.62 8.00 2.06 8.79 C 1.55 9.03 0.52 9.51 0.00 9.74 L 0.00 0.00 Z" />
<path fill="#892933" d=" M 2.06 8.79 C 4.62 8.00 7.32 8.13 9.96 8.11 C 25.24 8.24 40.54 8.07 55.82 8.22 C 57.75 7.96 58.74 9.79 59.88 10.98 L 59.76 11.92 C 50.27 9.12 40.26 10.03 30.52 10.51 C 33.80 15.73 39.89 17.75 44.16 21.85 C 46.22 28.86 44.38 36.30 43.49 43.38 C 48.97 44.19 54.63 43.76 59.62 41.19 C 59.68 41.67 59.81 42.63 59.88 43.11 C 56.80 45.65 52.71 45.02 49.02 45.07 C 34.34 44.96 19.67 45.13 5.00 45.02 C 3.23 45.23 1.86 44.06 0.58 43.03 C 9.50 43.58 18.49 44.35 27.38 43.02 C 25.46 40.92 23.45 38.90 21.51 36.82 C 23.28 36.91 25.05 36.98 26.82 37.04 C 26.94 38.37 27.06 39.70 27.18 41.03 C 32.45 40.98 37.72 40.99 42.98 40.99 C 43.03 34.34 43.02 27.70 43.00 21.05 C 41.06 21.02 39.11 21.01 37.17 21.00 C 37.05 19.67 36.94 18.33 36.82 16.99 C 34.94 17.00 33.06 17.00 31.17 16.99 C 31.06 15.65 30.94 14.31 30.82 12.97 C 25.55 13.01 20.28 12.99 15.00 13.01 C 14.96 19.66 15.06 26.31 14.90 32.96 C 11.26 25.78 12.79 17.31 15.11 9.96 C 10.76 9.57 6.43 9.04 2.06 8.79 Z" />
<path fill="#a2202d" d=" M 0.00 9.74 C 0.52 9.51 1.55 9.03 2.06 8.79 C 6.43 9.04 10.76 9.57 15.11 9.96 C 12.79 17.31 11.26 25.78 14.90 32.96 C 16.80 33.05 18.70 33.06 20.59 33.06 C 20.87 34.32 21.18 35.58 21.51 36.82 C 23.45 38.90 25.46 40.92 27.38 43.02 C 18.49 44.35 9.50 43.58 0.58 43.03 L 0.00 42.57 L 0.00 9.74 Z" />
<path fill="#a31f2c" d=" M 30.52 10.51 C 40.26 10.03 50.27 9.12 59.76 11.92 C 58.51 21.60 58.64 31.49 59.62 41.19 C 54.63 43.76 48.97 44.19 43.49 43.38 C 44.38 36.30 46.22 28.86 44.16 21.85 C 39.89 17.75 33.80 15.73 30.52 10.51 Z" />
<path fill="#d16270" d=" M 59.88 10.98 L 60.00 10.03 L 60.00 44.08 L 59.88 43.11 C 59.81 42.63 59.68 41.67 59.62 41.19 C 58.64 31.49 58.51 21.60 59.76 11.92 L 59.88 10.98 Z" />
<path fill="#ffe4eb" d=" M 15.00 13.01 C 20.28 12.99 25.55 13.01 30.82 12.97 C 30.94 14.31 31.06 15.65 31.17 16.99 C 33.06 17.00 34.94 17.00 36.82 16.99 C 36.94 18.33 37.05 19.67 37.17 21.00 C 39.11 21.01 41.06 21.02 43.00 21.05 C 43.02 27.70 43.03 34.34 42.98 40.99 C 37.72 40.99 32.45 40.98 27.18 41.03 C 27.06 39.70 26.94 38.37 26.82 37.04 C 25.05 36.98 23.28 36.91 21.51 36.82 C 21.18 35.58 20.87 34.32 20.59 33.06 C 18.70 33.06 16.80 33.05 14.90 32.96 C 15.06 26.31 14.96 19.66 15.00 13.01 Z" />
<path fill="#852c37" d=" M 17.01 15.00 C 21.00 14.99 25.00 15.01 29.00 15.01 C 29.00 15.50 29.00 16.49 29.00 16.99 C 26.33 16.98 23.66 17.01 21.00 17.01 C 21.01 21.67 21.02 26.34 20.99 31.00 C 19.67 31.00 18.34 31.00 17.01 31.00 C 16.98 25.67 16.98 20.34 17.01 15.00 Z" />
<path fill="#852c36" d=" M 23.01 19.00 C 27.00 19.00 31.00 19.01 35.00 19.01 C 35.00 19.50 35.00 20.49 35.00 20.99 C 32.33 20.98 29.67 21.01 27.00 21.01 C 27.01 25.67 27.02 30.34 26.99 35.00 C 25.66 35.00 24.34 35.00 23.02 35.00 C 22.99 29.67 22.97 24.34 23.01 19.00 Z" />
<path fill="#7d2f39" d=" M 29.01 23.00 C 33.00 23.00 37.00 23.00 41.00 23.00 C 41.02 28.33 41.02 33.67 41.00 39.00 C 37.00 39.02 33.01 39.02 29.01 39.00 C 28.99 33.67 28.97 28.34 29.01 23.00 Z" />
<path fill="#a1202d" d=" M 30.78 25.73 C 32.85 22.95 36.87 24.76 39.73 24.98 C 39.76 29.08 40.15 33.24 39.26 37.28 C 36.50 38.13 33.50 38.11 30.74 37.28 C 29.92 33.51 29.75 29.47 30.78 25.73 Z" />
<path fill="#ffffff" d=" M 0.00 42.57 L 0.58 43.03 C 1.86 44.06 3.23 45.23 5.00 45.02 C 19.67 45.13 34.34 44.96 49.02 45.07 C 52.71 45.02 56.80 45.65 59.88 43.11 L 60.00 44.08 L 60.00 60.00 L 0.00 60.00 L 0.00 42.57 Z" />
<path fill="#1a1a1a" d=" M 1.98 47.99 C 2.49 47.99 3.50 47.99 4.00 47.99 C 3.98 50.62 4.01 53.24 4.10 55.87 C 4.80 55.88 6.20 55.90 6.91 55.91 C 6.99 53.27 7.01 50.63 7.01 47.99 C 7.51 47.99 8.52 47.99 9.02 47.99 C 8.99 51.22 10.05 57.27 5.10 57.00 C 0.78 56.34 2.20 51.05 1.98 47.99 Z" />
<path fill="#000000" d=" M 10.00 47.99 C 10.50 47.99 11.50 47.99 12.00 47.99 C 12.00 50.99 12.00 54.00 12.00 57.00 C 11.50 57.00 10.50 57.00 10.00 57.00 C 10.00 54.00 10.00 50.99 10.00 47.99 Z" />
<path fill="#3b3b3b" d=" M 16.89 48.81 C 19.25 47.52 21.69 47.92 23.38 50.05 C 21.65 49.77 19.94 49.38 18.22 49.07 C 18.06 51.34 18.06 53.62 18.20 55.89 C 19.95 55.62 21.68 55.25 23.44 55.04 C 21.84 56.19 19.69 58.02 17.77 56.34 C 15.12 54.69 16.06 51.25 16.89 48.81 Z" />
<path fill="#000000" d=" M 42.00 47.99 C 42.50 47.99 43.50 47.99 44.00 47.99 C 44.00 50.99 44.00 54.00 44.00 57.00 C 43.50 57.00 42.50 57.00 42.00 57.00 C 42.00 54.00 42.00 50.99 42.00 47.99 Z" />
<path fill="#070707" d=" M 30.24 50.14 C 30.74 49.65 31.75 48.68 32.25 48.20 C 32.61 48.70 33.35 49.71 33.71 50.21 C 32.62 52.51 33.07 55.06 33.36 57.48 C 32.60 56.97 31.84 56.47 31.08 55.96 C 31.03 53.99 31.02 51.98 30.24 50.14 Z" />
<path fill="#070707" d=" M 24.94 50.02 C 26.54 49.80 28.05 50.03 29.47 50.73 C 30.27 52.72 29.95 54.91 30.05 57.00 C 29.48 57.00 28.33 57.00 27.75 57.00 C 27.84 55.13 27.79 53.25 27.83 51.38 C 27.11 51.04 25.67 50.36 24.94 50.02 Z" />
<path fill="#0c0c0c" d=" M 36.18 49.87 C 37.70 50.01 39.21 50.24 40.71 50.56 C 40.96 52.70 41.04 54.85 41.07 57.00 C 40.50 57.00 39.36 57.00 38.80 57.00 C 38.84 54.28 39.52 50.83 36.18 49.87 Z" />
<path fill="#353535" d=" M 45.26 52.32 C 45.70 50.64 47.57 50.30 48.87 49.54 C 50.22 51.36 52.10 53.82 50.06 55.91 C 47.92 58.84 43.83 55.01 45.26 52.32 Z" />
<path fill="#3d3d3d" d=" M 54.23 57.29 C 50.96 55.28 51.74 51.41 54.40 49.34 C 54.20 51.99 54.13 54.64 54.23 57.29 Z" />
<path fill="#191919" d=" M 55.76 50.00 C 56.32 50.00 57.44 50.00 58.00 50.00 C 57.71 53.09 59.26 57.27 55.82 59.09 C 54.12 59.32 52.73 58.18 51.32 57.44 C 52.85 57.61 54.36 57.85 55.88 58.07 C 55.84 55.38 55.91 52.69 55.76 50.00 Z" />
<path fill="#808080" d=" M 24.34 51.20 C 24.89 51.75 24.89 51.75 24.34 51.20 Z" />
<path fill="#7f7f7f" d=" M 35.34 51.20 C 35.90 51.76 35.90 51.76 35.34 51.20 Z" />
<path fill="#ffffff" d=" M 47.02 51.25 C 47.51 51.25 48.50 51.26 48.99 51.26 C 48.98 52.76 48.98 54.26 48.98 55.75 C 48.49 55.75 47.52 55.76 47.03 55.76 C 47.02 54.25 47.02 52.75 47.02 51.25 Z" />
<path fill="#212121" d=" M 25.22 53.07 C 26.67 53.36 26.44 55.72 26.38 56.87 C 24.34 57.55 22.99 53.76 25.22 53.07 Z" />
<path fill="#212121" d=" M 36.22 53.07 C 37.67 53.36 37.43 55.72 37.37 56.86 C 35.33 57.55 33.99 53.76 36.22 53.07 Z" />
</svg>
